<?xml version="1.0" standalone="no"?>
<!DOCTYPE svg PUBLIC "-//W3C//DTD SVG 20010904//EN"
 "http://www.w3.org/TR/2001/REC-SVG-20010904/DTD/svg10.dtd">
<svg version="1.0" xmlns="http://www.w3.org/2000/svg"
 width="128.000000pt" height="128.000000pt" viewBox="0 0 128.000000 128.000000"
 preserveAspectRatio="xMidYMid meet">
<metadata>
Created by potrace 1.14, written by Peter Selinger 2001-2017
</metadata>
<g transform="translate(0.000000,128.000000) scale(0.100000,-0.100000)"
fill="#000000" stroke="none">
<path d="M0 640 l0 -640 640 0 640 0 0 640 0 640 -640 0 -640 0 0 -640z m338
407 l3 -66 67 -3 c52 -2 67 -6 67 -18 0 -12 -15 -16 -67 -18 l-67 -3 -3 -67
c-2 -52 -6 -67 -18 -67 -12 0 -16 15 -18 67 l-3 67 -67 3 c-52 2 -67 6 -67 18
0 12 15 16 68 18 l67 3 0 63 c0 34 3 66 7 70 17 17 28 -6 31 -67z m777 -87 c0
-13 -24 -15 -149 -18 -144 -2 -176 3 -161 27 4 8 55 11 158 9 127 -3 152 -5
152 -18z m-848 -562 l53 -52 53 52 c52 51 77 64 77 40 0 -7 -23 -36 -52 -65
l-52 -53 52 -53 c51 -52 64 -77 40 -77 -7 0 -36 23 -65 52 l-53 52 -53 -52
c-52 -51 -77 -64 -77 -40 0 7 23 36 52 65 l52 53 -52 53 c-51 52 -64 77 -40
77 7 0 36 -23 65 -52z m846 -2 c3 -8 3 -17 0 -20 -8 -8 -298 -8 -306 0 -3 3
-3 12 0 20 8 21 298 21 306 0z m0 -132 c3 -3 3 -12 0 -20 -8 -21 -298 -21
-306 0 -3 8 -3 17 0 20 8 8 298 8 306 0z"/>
</g>
</svg>
